<?xml version="1.0" encoding="UTF-8"?>
<svg width="20px" height="21px" viewBox="0 0 20 21" version="1.1" xmlns="http://www.w3.org/2000/svg" xmlns:xlink="http://www.w3.org/1999/xlink">
    <title>1</title>
    <g id="页面-2" stroke="none" stroke-width="1" fill="none" fill-rule="evenodd" opacity="0.800000012">
        <g id="1">
            <rect id="矩形" fill-opacity="0" fill="#FFFFFF" x="0" y="0" width="20" height="20"></rect>
            <g id="编组" transform="translate(1.000000, 1.000000)" fill="#04ECAE" fill-rule="nonzero">
                <g id="编组-66">
                    <path d="M0.640025034,11.7272944 C-0.577691326,8.07794963 0.620888063,4.04346638 3.62030536,1.69550914 C6.61972266,-0.652448108 10.7534479,-0.792116737 13.898857,1.34822161 L12.9901282,2.73538669 C10.2463831,0.872035805 6.61074624,1.14943612 4.1698006,3.40838066 C1.72885497,5.6673252 1.10820005,9.32886022 2.66404522,12.2915392 C4.2198904,15.2542182 7.55348201,16.7587246 10.7515885,15.9415845 C13.949695,15.1244445 16.1926611,12.195086 16.1931925,8.83474112 L17.8305416,8.83474112 C17.8226479,13.7995005 13.8744653,17.8215832 9.00318309,17.8273276 C5.22115281,17.8298888 1.85774139,15.3766392 0.640025034,11.7272944 Z" id="路径" transform="translate(8.999976, 8.830565) rotate(-270.000000) translate(-8.999976, -8.830565) "></path>
                    <path d="M0.479643778,11.0951357 C-0.761437275,7.51450355 0.46013962,3.55598467 3.51710765,1.25223658 C4.22348342,0.719907871 4.99158614,0.30326773 5.79472499,0.00318433425 L6.46289235,1.51112759 C5.60112934,1.82329435 4.78925526,2.2984253 4.07714622,2.93285683 C1.58936542,5.14926822 0.956801809,8.74186103 2.54249946,11.6487564 C4.12819711,14.5556518 7.52575135,16.0318302 10.7852209,15.2300759 C14.0446904,14.4283215 16.330693,11.5541193 16.3312346,8.25704559 L18,8.25704559 C17.9919549,13.1283247 13.9680173,17.0746764 9.00326829,17.0803303 C5.14867104,17.0828257 1.72072483,14.6757678 0.479643778,11.0951357 Z" id="路径" transform="translate(9.000000, 8.541757) rotate(-180.000000) translate(-9.000000, -8.541757) "></path>
                    <polygon id="路径" transform="translate(12.007712, 16.264066) rotate(-120.000000) translate(-12.007712, -16.264066) " points="9.26189593 18.036305 11.6657015 14.491827 14.7535282 17.5233132"></polygon>
                </g>
                <polygon id="路径" transform="translate(9.026705, 7.826705) rotate(-45.000000) translate(-9.026705, -7.826705) " points="13.1813287 10.7809174 4.8720823 10.7809174 4.8720823 4.8724936 6.72204492 4.8724936 6.72204492 8.89905698 13.1813287 8.89905698"></polygon>
            </g>
        </g>
    </g>
</svg>