<?xml version="1.0" encoding="UTF-8"?>
<svg width="21px" height="20px" viewBox="0 0 21 20" version="1.1" xmlns="http://www.w3.org/2000/svg" xmlns:xlink="http://www.w3.org/1999/xlink">
    <title>2</title>
    <g id="页面-2" stroke="none" stroke-width="1" fill="none" fill-rule="evenodd" opacity="0.800000012">
        <g id="2">
            <rect id="矩形备份-90" fill-opacity="0" fill="#FFFFFF" x="0" y="0" width="20" height="20"></rect>
            <g id="编组-62" transform="translate(0.600000, 1.086480)" fill="#04ECAE" fill-rule="nonzero">
                <g id="编组备份-8">
                    <path d="M0.479643778,11.8977063 C-0.761437275,8.24706824 0.46013962,4.21115525 3.51710765,1.86236594 C5.14703192,0.610030734 7.10560953,-0.014299956 9.06492893,0.00024848699 L9.02825682,1.67233806 C7.24502302,1.66666459 5.47019301,2.31048758 4.07714622,3.57584447 C1.58936542,5.83558953 0.956801809,9.49842212 2.54249946,12.462151 C4.12819711,15.4258799 7.52575135,16.9309195 10.7852209,16.1134898 C14.0446904,15.2960602 16.330693,12.3656636 16.3312346,9.00412792 L18,9.00412792 C17.9919549,13.9706467 13.9680173,17.9941547 9.00326829,18 C5.14867104,18.0024633 1.72072483,15.5483443 0.479643778,11.8977063 Z" id="路径" transform="translate(9.000000, 9.000000) rotate(-270.000000) translate(-9.000000, -9.000000) "></path>
                    <polygon id="路径" transform="translate(17.024988, 8.886406) rotate(-180.000000) translate(-17.024988, -8.886406) " points="14.2489426 10.8864061 16.9540218 6.88640612 19.8010342 10.8864061"></polygon>
                    <polygon id="路径" points="11.8906351 11.3736933 6.96991774 11.3736933 6.96991774 5.65399976 8.62324571 5.65399976 8.62324571 9.70492788 11.8906351 9.70492788"></polygon>
                </g>
                <path d="M16.1000835,12.0543453 C15.6218707,12.3442464 15.4580229,12.9863091 15.7341192,13.4884325 C16.0102155,13.9905559 16.6217038,14.1625961 17.0999165,13.872695 C17.5781293,13.5827939 17.7419771,12.9407312 17.4658808,12.4386078 C17.1897845,11.9364844 16.5782962,11.7644442 16.1000835,12.0543453 Z" id="路径"></path>
                <path d="M14.1000835,14.5543453 C13.6218707,14.8442464 13.4580229,15.4863091 13.7341192,15.9884325 C14.0102155,16.4905559 14.6217038,16.6625961 15.0999165,16.372695 C15.5781293,16.0827939 15.7419771,15.4407312 15.4658808,14.9386078 C15.1897845,14.4364844 14.5782962,14.2644442 14.1000835,14.5543453 Z" id="路径备份-2"></path>
                <path d="M10.9000835,15.9543453 C10.4218707,16.2442464 10.2580229,16.8863091 10.5341192,17.3884325 C10.8102155,17.8905559 11.4217038,18.0625961 11.8999165,17.772695 C12.3781293,17.4827939 12.5419771,16.8407312 12.2658808,16.3386078 C11.9897845,15.8364844 11.3782962,15.6644442 10.9000835,15.9543453 L10.9000835,15.9543453 Z" id="路径"></path>
            </g>
        </g>
    </g>
</svg>